<svg width="639" height="607" viewBox="0 0 639 607" fill="none" xmlns="http://www.w3.org/2000/svg">
<g clip-path="url(#clip0_1_213)">
<path d="M518.348 500.758H497.699L500.409 508.038C495.97 509.483 485.874 512.796 481.341 514.099C477.12 515.313 475.964 520.215 479.328 522.495C480.734 523.449 482.62 523.92 484.446 523.913L515.258 523.803C519.542 523.787 522.369 522.654 522.942 519.026C523.073 518.195 523.002 517.341 522.774 516.531L518.348 500.758Z" fill="#072C4E"/>
<path d="M402.029 500.9H380.133L382.538 508.02C378.1 509.466 367.714 512.907 363.182 514.21C358.961 515.423 357.805 520.324 361.169 522.605C362.575 523.559 364.46 523.92 366.287 523.914H399.575C399.623 523.914 399.671 523.913 399.719 523.912C404.74 523.851 408.182 518.804 406.536 514.056L402.029 500.9Z" fill="#072C4E"/>
<path d="M472.072 298.256C472.072 298.256 486.789 340.202 500.045 383.272C505.984 402.567 526.472 475.682 532.735 493.641C533.86 496.863 531.469 500.598 528.06 500.598H487.496C483.202 500.598 478.634 497.24 477.341 493.141C448.806 402.7 432.305 316.474 432.305 316.474C432.305 316.374 399.162 373.019 392.388 384.595C391.617 385.915 391.381 387.474 391.729 388.963C394.727 401.772 409.487 464.434 418.374 494.473C419.247 497.425 417.114 500.509 414.038 500.533C414.016 500.533 413.994 500.534 413.973 500.533H375.604C372.564 500.533 369.368 498.144 368.494 495.229C358.114 460.65 350.727 426.805 344.456 395.643C341.719 382.043 344.358 374.924 355.24 358.982C367.648 340.805 397.707 292.297 401.077 288.924" stroke="#082C4E" stroke-width="1.17148" stroke-linecap="round" stroke-linejoin="round"/>
<path d="M178.842 501.105H158.194L157.819 506.963C153.381 508.408 141.699 512.196 137.166 513.499C132.946 514.712 131.79 519.614 135.154 521.895C136.56 522.848 138.58 523.209 140.406 523.203H169.846C174.677 523.185 177.655 521.745 177.637 516.909L178.842 501.105Z" fill="#072C4E"/>
<path d="M284.841 500.544H306.737L312.54 506.962C316.978 508.408 328.66 512.196 333.192 513.499C337.413 514.712 338.569 519.614 335.205 521.895C333.799 522.848 331.914 523.208 330.086 523.202H296.799C291.968 523.184 289.405 521.146 288.477 517.274L284.841 500.544Z" fill="#072C4E"/>
<path d="M267.729 329.913C289.97 371.493 323.057 450.685 332.284 492.851C333.057 496.386 330.399 500.492 326.785 500.546H276.246C273.385 500.589 270.279 497.043 269.855 494.209C262.779 446.987 214.817 332.218 207.853 308.827C207.853 308.827 200.03 455.037 199.509 490.633C199.434 495.788 195.995 501.166 190.844 501.166H148.756C143.041 501.166 138.642 496.12 139.42 490.453C149.271 418.616 156.106 339.249 165.39 295.67" stroke="#082C4E" stroke-width="1.17148" stroke-linecap="round" stroke-linejoin="round"/>
<path d="M239.42 292.634C243.014 299.044 248.266 306.076 251.552 310.177" stroke="#082C4E" stroke-width="1.17148" stroke-linecap="round" stroke-linejoin="round"/>
<path d="M127.193 522.182C245.621 524.713 345.018 523.627 345.018 523.627" stroke="#082C4E" stroke-width="1.17148" stroke-linecap="round" stroke-linejoin="round"/>
<path d="M364.902 522.829C381.625 523.186 395.395 523.326 409.416 523.503C494.688 524.581 531.219 523.616 531.219 523.616" stroke="#082C4E" stroke-width="1.17148" stroke-linecap="round" stroke-linejoin="round"/>
<path d="M299.645 164.768C299.645 164.768 322.245 197.202 352.806 213.159C382.692 228.759 421.132 229.09 422.811 229.096" stroke="#092C4E" stroke-width="28.7013" stroke-linejoin="round"/>
<path d="M299.645 164.768C299.645 164.768 322.245 197.202 352.806 213.159C382.692 228.759 421.132 229.09 422.811 229.096" stroke="#FFCC00" stroke-width="26.3583"/>
<path d="M308.868 153.292L284.437 172.46L288.104 175.129L312.365 159.202L308.868 153.292Z" fill="#FFCC00"/>
<path d="M296.386 165.571C292.713 164.774 288.822 157.291 287.736 154C286.899 151.467 287.484 149.531 289.726 148.526C292.954 147.078 297.243 150.858 297.894 151.662" stroke="#082C4E" stroke-width="1.17148" stroke-linecap="round" stroke-linejoin="round"/>
<path d="M295.894 155.797C296.671 156.671 298.551 159.86 299.035 160.925" stroke="#082C4E" stroke-width="1.17148" stroke-linecap="round" stroke-linejoin="round"/>
<path d="M286.791 152.549C282.797 151.718 282.113 155.277 282.37 157.187C283.025 162.062 287.361 168.279 289.956 170.557C290.748 171.252 291.963 171.446 292.951 171.081C293.939 170.717 294.648 169.566 294.305 168.57" stroke="#082C4E" stroke-width="1.17148" stroke-linecap="round" stroke-linejoin="round"/>
<path d="M282.009 156.379C278.802 156.295 278.013 159.725 278.538 162.408C279.443 167.022 283.127 170.767 285.297 172.308C286.349 173.054 289.245 173.767 290.185 171.16" stroke="#082C4E" stroke-width="1.17148" stroke-linecap="round" stroke-linejoin="round"/>
<path d="M313.642 156.914C313.642 156.914 310.791 154.628 303.97 144.856C300.399 139.739 298.435 136.738 296.563 134.932C294.235 132.688 292.136 131.914 290.971 133.191C289.658 134.631 291.092 139.303 292.751 142.638C295.681 148.524 303.031 159.652 305.052 162.219" stroke="#082C4E" stroke-width="1.17148" stroke-linecap="round" stroke-linejoin="round"/>
<path d="M313.608 166.043C310.528 163.577 300.168 160.891 297.755 160.967C294.73 161.062 294.852 164.301 297.09 166.193C299.891 168.561 304.785 169.92 305.195 169.939C306.302 169.992 300.089 171.611 299.459 175.742" stroke="#082C4E" stroke-width="1.17148" stroke-linecap="round" stroke-linejoin="round"/>
<path d="M515.521 353.674C515.521 353.674 540.851 317.124 525.631 280.419C510.742 244.49 468.541 236.198 466.741 235.854" stroke="#092C4E" stroke-width="28.7013" stroke-linejoin="round"/>
<path d="M515.521 353.674C515.521 353.674 540.851 317.124 525.631 280.419C510.742 244.49 468.541 236.198 466.741 235.854" stroke="#FFCC00" stroke-width="26.3583"/>
<path d="M464.597 299.592L407.408 290.65C404.224 290.152 402.047 287.165 402.544 283.978L411.816 224.558C413.282 215.165 422.076 208.74 431.459 210.207L466.198 215.639C475.582 217.106 482 225.911 480.535 235.304L471.262 294.723C470.764 297.91 467.781 300.09 464.597 299.592Z" fill="#2F97F3"/>
<path d="M489.906 458.607L400.311 418.528L453.048 300.483L542.643 340.561L489.906 458.607Z" fill="white"/>
<path d="M426.188 402.185C441.082 382.931 456.008 363.703 470.967 344.5C471.972 343.21 473.084 341.846 474.658 341.403C476.275 340.947 477.976 341.577 479.537 342.196C484.95 344.344 490.364 346.492 495.777 348.64" stroke="#082C4E" stroke-width="1.17148" stroke-linecap="round" stroke-linejoin="round"/>
<path d="M427.501 404.899C430.636 405.812 440.671 410.202 440.671 410.202C440.671 410.202 459.95 386.391 460.542 386.278C460.863 386.218 473.496 391.363 473.346 391.864C470.305 401.964 468.237 412.377 466.095 419.339C465.969 419.748 482.33 427.033 482.61 426.912C483.115 426.695 483.538 425.024 483.656 424.488C485.724 415.161 494.825 370.855 495.122 363.778" stroke="#082C4E" stroke-width="1.17148" stroke-linecap="round" stroke-linejoin="round"/>
<path d="M467.475 374.674C467.475 374.674 474.837 378.051 476.832 378.827C477.266 378.996 480.962 356.126 480.962 356.126L467.475 374.674Z" stroke="#082C4E" stroke-width="1.17148" stroke-linecap="round" stroke-linejoin="round"/>
<path d="M502.124 344.485C498.944 349.479 489.711 358.684 492.462 360.852C495.74 363.435 502.314 355.716 505.205 351.815" stroke="#082C4E" stroke-width="1.17148" stroke-linecap="round" stroke-linejoin="round"/>
<path d="M499.808 369.449C499.731 372.1 503.147 371.535 505.039 370.451C510.025 367.594 513.442 362.052 515.88 358.072" stroke="#082C4E" stroke-width="1.17148" stroke-linecap="round" stroke-linejoin="round"/>
<path d="M506.268 349.687C504.423 353.102 503.991 355.009 499.468 360.881C497.033 364.042 493.468 368.271 495.691 369.54C500.178 372.1 507.697 361.389 511.108 355.243" stroke="#082C4E" stroke-width="1.17148" stroke-linecap="round" stroke-linejoin="round"/>
<path d="M505.474 372.173C505.892 372.867 507.233 373.841 509.4 372.965C512.988 371.516 516.683 368.823 518.612 365.466" stroke="#082C4E" stroke-width="1.17148" stroke-linecap="round" stroke-linejoin="round"/>
<path d="M502.078 344.343C502.078 344.343 510.038 334.423 512.112 321.611" stroke="#092C4E" stroke-width="1.17148"/>
<path d="M540.183 337.847C540.183 337.847 537.447 348.704 532.698 356.275" stroke="#092C4E" stroke-width="1.17148"/>
<path d="M402.4 243.691C402.4 243.691 406.385 244.643 419.552 243.227" stroke="#092C4E" stroke-width="1.17148"/>
<path d="M409.952 212.54C409.952 212.54 414.25 213.087 426.114 212.594" stroke="#092C4E" stroke-width="1.17148"/>
<path d="M479.784 256.925C479.784 256.925 475.594 254.242 466.08 253.062" stroke="#092C4E" stroke-width="1.17148"/>
<path d="M484.663 224.599C484.663 224.599 476.171 220.958 467.979 220.667" stroke="#092C4E" stroke-width="1.17148"/>
<path d="M447.195 193.427C447.195 193.427 441.743 197.104 435.609 194.083" stroke="#082C4E" stroke-width="1.17148" stroke-linecap="round" stroke-linejoin="round"/>
<path d="M439.651 184.656L436.493 189.739L439.213 191.193" stroke="#082C4E" stroke-width="1.17148" stroke-linecap="round" stroke-linejoin="round"/>
<path d="M439.382 183.883C439.232 186.116 437.302 187.805 435.071 187.655C432.84 187.505 431.153 185.574 431.303 183.34C431.453 181.107 433.382 179.418 435.613 179.568C437.844 179.718 439.531 181.649 439.382 183.883Z" stroke="#082C4E" stroke-width="1.17148" stroke-linecap="round" stroke-linejoin="round"/>
<path d="M449.47 185.018C449.32 187.251 447.391 188.94 445.16 188.79C442.929 188.64 441.242 186.709 441.392 184.476C441.541 182.243 443.471 180.554 445.702 180.703C447.933 180.853 449.62 182.784 449.47 185.018Z" stroke="#082C4E" stroke-width="1.17148" stroke-linecap="round" stroke-linejoin="round"/>
<path d="M439.672 184.36L441.392 184.476L439.672 184.36Z" fill="#2F97F3"/>
<path d="M439.672 184.36L441.392 184.476" stroke="#082C4E" stroke-width="1.17148" stroke-linecap="round" stroke-linejoin="round"/>
<path d="M453.92 170.272C451.798 167.477 448.534 165.575 444.76 165.322C437.834 164.857 431.844 170.1 431.379 177.033L447.717 178.129C449.246 181.254 452.292 182.348 454.873 182.857C457.532 183.381 458.732 184.748 459.035 186.402C459.112 186.821 459.165 187.267 459.217 187.729C459.806 187.513 460.447 187.41 461.114 187.455C463.66 187.626 465.586 189.83 465.414 192.378C465.311 193.933 464.448 195.254 463.214 196.011C464.702 197.072 466.498 197.736 468.454 197.868C468.47 197.868 468.485 197.868 468.5 197.87C469.696 195.599 470.448 193.049 470.631 190.324C471.309 180.197 463.892 171.402 453.92 170.272Z" fill="#FD6470"/>
<path d="M467.724 198.94C464.194 204.084 458.276 207.458 451.57 207.458C440.755 207.458 431.987 198.681 431.987 187.854C431.987 187.34 432.007 186.831 432.046 186.325" stroke="#082C4E" stroke-width="1.17148" stroke-linecap="round" stroke-linejoin="round"/>
<path d="M205.11 178.147L210.255 181.647L208.124 184.418" stroke="#082C4E" stroke-width="1.17148" stroke-linecap="round" stroke-linejoin="round"/>
<path d="M210.516 186.676C210.516 186.676 205.898 190.349 200.833 188.845C200.833 188.845 201.645 195.456 208.044 194.229" stroke="#082C4E" stroke-width="1.17148" stroke-linecap="round" stroke-linejoin="round"/>
<path d="M208.639 174.415C211.294 177.767 212.877 182.01 212.868 186.621C212.848 197.448 204.064 206.209 193.249 206.189C187.441 206.178 182.228 203.638 178.649 199.611" stroke="#082C4E" stroke-width="1.17148" stroke-linecap="round" stroke-linejoin="round"/>
<path d="M208.235 172.989C204.045 168.133 197.753 165.566 191.389 166.072C191.376 166.072 189.784 166.229 188.719 166.482C187.181 166.848 185.856 167.285 184.87 167.719C182.671 168.688 180.73 169.995 179.08 171.547C178.734 171.184 178.36 170.839 177.944 170.529C173.935 167.544 168.268 168.378 165.286 172.391C162.304 176.404 163.136 182.077 167.145 185.062C168.841 186.325 170.834 186.897 172.794 186.841C172.854 188.345 173.085 189.861 173.501 191.363C174.566 195.752 177.39 198.977 177.39 198.977C182.812 196.823 185.292 194.789 186.416 192.823C186.258 192.828 186.099 192.825 185.939 192.814C183.393 192.638 181.472 190.431 181.647 187.883C181.823 185.335 184.028 183.411 186.574 183.587C187.002 183.617 187.411 183.708 187.797 183.845C188.228 182.792 189.016 181.735 190.445 180.666C194.765 177.435 196.041 174.288 195.889 171.748C199.702 173.414 204.013 173.911 208.235 172.989Z" fill="#2F97F3"/>
<path d="M63.8802 477.973C63.8802 487.864 70.0759 496.302 78.7925 499.623C73.6334 502.346 70.115 507.765 70.115 514.009V522.379H108.872V514.009C108.872 507.765 105.353 502.346 100.194 499.623C108.911 496.302 115.107 487.864 115.107 477.973V454.353H63.8802V477.973Z" fill="#2F97F3"/>
<path d="M73.1131 419.985C78.8323 431.609 82.9958 443.998 85.4587 456.719" stroke="#082C4E" stroke-width="1.17148" stroke-linecap="round" stroke-linejoin="round"/>
<path d="M90.1229 455.581C92.538 439.332 103.716 418.19 107.311 414.873" stroke="#082C4E" stroke-width="1.17148" stroke-linecap="round" stroke-linejoin="round"/>
<path d="M81.0188 454.028C78.2269 450.557 75.5881 446.962 73.1131 443.259C71.4846 440.821 67.4869 433.821 70.6812 433C72.561 432.517 75.2942 436.238 77.0676 438.42C72.0056 431.025 67.1418 422.893 66.9443 413.93C66.8709 410.595 67.8988 406.948 70.7816 405.275C74.3957 403.177 77.8785 406.776 79.5635 409.699C84.7037 418.619 83.5511 425.105 84.7131 435.333C84.9706 434.511 85.1243 432.021 86.3868 432.014C90.4701 431.991 88.8888 450.043 87.9323 453.894" stroke="#082C4E" stroke-width="1.17148" stroke-linecap="round" stroke-linejoin="round"/>
<path d="M90.2921 433.203C91.6746 426.455 95.2712 410.911 99.833 411.125C101.806 411.218 101.856 414.44 101.685 415.322C103.369 409.672 107.824 404.92 113.351 402.88C114.662 402.396 116.208 402.08 117.396 402.816C118.468 403.482 118.928 404.857 118.837 406.116C118.746 407.375 118.2 408.55 117.646 409.684C115.435 414.192 111.434 420.078 108.659 424.263C112.254 421.788 113.814 421.234 115.708 421.544C117.23 421.794 118.231 423.412 118.279 424.955C118.326 426.498 117.644 427.963 116.912 429.322C113.976 434.763 109.94 439.604 105.118 443.469C106.501 443.673 108.252 442.451 109.109 443.556C109.327 443.836 109.398 444.205 109.401 444.56C109.412 446.137 108.235 447.447 107.066 448.502C104.117 451.165 100.727 453.335 97.0769 454.899" stroke="#082C4E" stroke-width="1.17148" stroke-linecap="round" stroke-linejoin="round"/>
<path d="M492.549 138.5H535.804V197.738H492.549V138.5Z" fill="#FD6470"/>
<path d="M498.41 144.736H529.915V191.112H498.41V144.736Z" stroke="#082C4E" stroke-width="1.17148" stroke-linecap="round" stroke-linejoin="round"/>
<path d="M519.052 162.992C519.052 167.402 515.479 170.976 511.075 170.976C506.67 170.976 503.099 167.402 503.099 162.992C503.099 158.583 506.67 155.008 511.075 155.008C515.479 155.008 519.052 158.583 519.052 162.992Z" stroke="#082C4E" stroke-width="1.17148" stroke-linecap="round" stroke-linejoin="round"/>
<path d="M514.557 180.647C514.557 177.293 517.273 174.575 520.624 174.575C523.974 174.575 526.69 177.293 526.69 180.647" stroke="#082C4E" stroke-width="1.17148" stroke-linecap="round" stroke-linejoin="round"/>
<path d="M272.783 323.447C305.158 307.804 331.161 289.685 322.528 257.508C309.294 208.18 227.962 216.615 227.962 216.615" stroke="#082C4E" stroke-width="1.17148" stroke-linecap="round" stroke-linejoin="round"/>
<path d="M234.815 247.09C234.815 247.09 280.31 241.073 291.771 258.785C299.71 271.055 295.186 283.597 277.391 293.871C269.689 298.319 257.28 302.045 249.529 306.607" stroke="#082C4E" stroke-width="1.17148" stroke-linecap="round" stroke-linejoin="round"/>
<path d="M264.331 322.351C262.625 325.366 260.647 330.062 260.371 333.906C260.333 334.435 260.408 335.274 260.766 335.663C261.392 336.343 262.529 335.909 263.259 335.343" stroke="#082C4E" stroke-width="1.17148" stroke-linecap="round" stroke-linejoin="round"/>
<path d="M254.368 307.711C252.169 309.871 249.958 312.044 248.148 314.54C246.336 317.034 244.927 319.891 244.531 322.949C244.451 323.572 244.467 324.322 244.987 324.674C245.262 324.86 245.62 324.881 245.948 324.827C247.148 324.627 247.995 323.58 248.741 322.619C250.892 319.848 253.177 317.181 255.586 314.631C253.199 318.359 250.782 322.148 249.514 326.39C249.35 326.938 249.204 327.509 249.277 328.077C249.35 328.645 249.687 329.213 250.227 329.4C250.73 329.575 251.285 329.393 251.764 329.162C253.943 328.116 255.497 326.11 256.776 324.057C258.055 322.005 259.556 319.371 260.482 318.106C258.241 321.34 255.174 326.427 254.388 331.15C254.136 332.66 254.439 333.934 255.259 334.412C256.27 335.001 257.456 333.763 257.802 333.356C260.39 330.319 262.413 325.443 264.246 322.491" stroke="#082C4E" stroke-width="1.17148" stroke-linecap="round" stroke-linejoin="round"/>
<path d="M159.541 123.441C159.541 123.441 93.816 142.002 101.197 190.812C108.436 238.664 174.208 237.915 176.769 237.868" stroke="#092C4E" stroke-width="28.7013" stroke-linejoin="round"/>
<path d="M159.541 123.441C159.541 123.441 93.816 142.002 101.197 190.812C108.436 238.664 174.208 237.915 176.769 237.868" stroke="#FFCC00" stroke-width="26.3583"/>
<path d="M255.906 97.6791L254.39 92.8501C253.986 91.5641 252.881 90.6247 251.548 90.4332L207.789 84.1395C206.375 83.9365 204.931 84.1585 203.643 84.7786L177.992 98.7195C176.407 94.71 171.921 92.6541 167.836 94.125L161.058 96.5671C156.893 98.0671 154.731 102.662 156.229 106.83L168.714 141.56C170.212 145.728 174.803 147.891 178.968 146.391L185.746 143.949C189.11 142.737 191.165 139.507 191.043 136.113L218.792 133.29C220.275 133.117 221.662 132.473 222.752 131.452L254.959 101.289C255.942 100.368 256.31 98.9644 255.906 97.6791Z" fill="white"/>
<path d="M255.236 95.5595L221.211 106.271" stroke="#082C4E" stroke-width="1.17148" stroke-linecap="round" stroke-linejoin="round"/>
<path d="M210.178 109.745C209.22 106.695 210.913 103.444 213.961 102.485C217.008 101.526 220.255 103.221 221.213 106.27C222.172 109.32 220.478 112.571 217.431 113.531C214.383 114.49 211.136 112.794 210.178 109.745Z" stroke="#082C4E" stroke-width="1.17148" stroke-linecap="round" stroke-linejoin="round"/>
<path d="M153.754 110.629L161.366 137.753L165.269 137.628L156.778 108.617L153.754 110.629Z" fill="#FFCC00"/>
<path d="M152.723 122.093C156.711 120.035 162.715 118.24 167.247 115.621C171.62 113.093 170.153 110.76 166.133 111.342C163.126 111.778 155.782 113.552 150.338 116.021" stroke="#082C4E" stroke-width="1.17148" stroke-linecap="round" stroke-linejoin="round"/>
<path d="M154.941 128.175C156.26 127.325 174.348 121.692 172.37 118.531C170.398 115.379 155.311 121.544 152.812 122.174" stroke="#082C4E" stroke-width="1.17148" stroke-linecap="round" stroke-linejoin="round"/>
<path d="M157.419 133.342C169.758 128.161 175.126 126.372 173.975 124.178C172.843 122.019 161.919 126.023 155.109 128.167" stroke="#082C4E" stroke-width="1.17148" stroke-linecap="round" stroke-linejoin="round"/>
<path d="M241.171 281.487C240.416 272.197 232.424 265.238 223.191 265.696C229.52 262.663 233.596 255.907 232.882 248.51L230.677 225.665C229.764 216.202 221.361 209.271 211.908 210.186L179.578 213.313C170.124 214.227 163.201 222.639 164.115 232.101L166.32 254.946C166.985 261.851 171.642 267.403 177.783 269.547C169.524 271.376 163.672 279.068 164.377 287.744C165.147 297.22 173.445 304.275 182.912 303.504L225.427 300.041C234.894 299.269 241.942 290.962 241.171 281.487Z" fill="#FD6470"/>
</g>
<defs>
<clipPath id="clip0_1_213">
<rect width="638.554" height="607" fill="white" transform="translate(0.446289)"/>
</clipPath>
</defs>
</svg>
